<svg width="1079" height="781" viewBox="0 0 1079 781" fill="none" xmlns="http://www.w3.org/2000/svg">
<g clip-path="url(#clip0_301_86)">
<path opacity="0.1" d="M930.93 447.66C896.83 503.43 902.86 579.18 917.47 638.91C922.36 658.91 928.01 680 923.66 702.41C918.34 729.81 899.28 751.41 880.03 763.77C844.93 786.32 804.97 785.86 776.03 762.58C750.98 742.46 734.58 707.26 709.03 688.23C666.22 656.38 607.26 676.05 555.97 706.23C519.68 727.57 479.74 754.58 446.37 739.53C422.89 728.94 408.37 698.84 401.64 666.04C398.4 650.21 396.48 632.91 388.95 620.86C384.47 613.7 378.29 608.92 371.88 605.01C313.37 569.34 233.88 599.71 177.49 559.28C139.4 531.97 117.91 475.34 111.04 414.71C104.17 354.08 110.25 289.13 117.83 225.18C123.25 179.74 130.53 131.08 154.17 94.03C179.17 54.84 218.41 37.22 252.43 40.73C286.45 44.24 315.91 66.07 341.27 92.73C372.97 126.05 401.49 168.66 442.65 179.27C470.65 186.5 501.37 177.86 531.2 172.92C581.07 164.66 630.2 166.76 678.96 169.57C725.65 172.26 772.63 175.68 816.08 192.2C846.83 203.89 870.36 228.4 899.03 244.28C917.72 254.63 938.85 255.86 956.25 269.7C977.68 286.7 996.15 318.3 987.37 358.31C979.02 396.36 949.02 418.07 930.93 447.66Z" fill="#AAD5C1"/>
<path d="M294.3 277.3C294.3 277.3 147.16 244.4 334.38 51.91C334.38 51.91 415.08 128.4 385.48 223.48C373.58 261.71 335.28 285.31 296.48 277.75L294.3 277.3Z" fill="#AAD5C1"/>
<path opacity="0.4" d="M294.409 276.812C294.408 276.812 294.407 276.811 294.405 276.811C293.61 276.633 284.271 274.297 273.568 267.961C262.852 261.616 250.804 251.281 244.565 235.12C232.112 202.863 242.683 147.009 334.391 52.6164C334.53 52.7529 334.709 52.9296 334.926 53.1459C335.506 53.7261 336.355 54.5907 337.426 55.7256C339.568 57.9954 342.597 61.346 346.14 65.6644C353.228 74.3019 362.37 86.8069 370.589 102.275C387.027 133.213 399.749 175.963 385.003 223.331C373.176 261.326 335.118 284.768 296.578 277.26C296.577 277.26 296.577 277.259 296.576 277.259L294.409 276.812Z" fill="#B1CAAA" stroke="black"/>
<path d="M296.25 278.4C296.25 278.4 373.97 161.32 334.4 51.92" stroke="#535461" stroke-miterlimit="10"/>
<path d="M899.61 390.99C899.61 390.99 874.25 288.88 912.68 216.18C928.82 185.67 935.23 150.91 929.84 116.82C927.253 100.649 923.189 84.7493 917.7 69.3199" stroke="#535461" stroke-width="2" stroke-miterlimit="10"/>
<path d="M941.65 23.36C941.12 35.72 917.21 70.59 917.21 70.59C917.21 70.59 896.37 33.8 896.9 21.44C897.268 15.5878 899.915 10.1129 904.275 6.19122C908.634 2.2695 914.358 0.213589 920.216 0.464945C926.075 0.716302 931.601 3.25488 935.608 7.53559C939.616 11.8163 941.785 17.4978 941.65 23.36Z" fill="#AAD5C1"/>
<path d="M975.71 93.3899C968.55 103.48 929.52 119.76 929.52 119.76C929.52 119.76 932.02 77.5499 939.18 67.4599C940.853 64.9904 943.003 62.88 945.503 61.2525C948.002 59.625 950.802 58.5131 953.737 57.9822C956.673 57.4513 959.685 57.5119 962.596 58.1607C965.508 58.8095 968.26 60.0332 970.692 61.7601C973.125 63.487 975.187 65.6824 976.76 68.2173C978.332 70.7522 979.382 73.5756 979.849 76.5218C980.315 79.4681 980.189 82.4778 979.476 85.3744C978.764 88.271 977.48 90.9962 975.7 93.3899H975.71Z" fill="#AAD5C1"/>
<path d="M969.08 210.29C957.81 215.38 915.9 209.74 915.9 209.74C915.9 209.74 939.37 174.57 950.64 169.47C956.032 167.158 962.115 167.053 967.584 169.178C973.052 171.303 977.468 175.488 979.883 180.835C982.299 186.181 982.52 192.262 980.5 197.77C978.48 203.277 974.379 207.773 969.08 210.29Z" fill="#AAD5C1"/>
<path d="M944.15 297.61C933.9 304.53 891.64 306.05 891.64 306.05C891.64 306.05 908.83 267.42 919.08 260.49C924.004 257.291 929.986 256.154 935.741 257.322C941.495 258.49 946.56 261.871 949.846 266.737C953.133 271.603 954.377 277.564 953.312 283.338C952.246 289.112 948.956 294.237 944.15 297.61Z" fill="#AAD5C1"/>
<path d="M882.44 120.18C890.93 129.18 931.85 139.86 931.85 139.86C931.85 139.86 923.49 98.41 915 89.42C910.891 85.2309 905.302 82.8216 899.435 82.71C893.568 82.5984 887.892 84.7934 883.626 88.8231C879.361 92.8528 876.847 98.3953 876.625 104.259C876.403 110.123 878.491 115.839 882.44 120.18Z" fill="#AAD5C1"/>
<path d="M854.58 222.63C865.38 228.63 907.58 226.63 907.58 226.63C907.58 226.63 887.25 189.57 876.44 183.54C871.269 180.809 865.235 180.208 859.627 181.866C854.019 183.524 849.282 187.31 846.428 192.414C843.574 197.518 842.828 203.536 844.352 209.182C845.875 214.828 849.546 219.654 854.58 222.63Z" fill="#AAD5C1"/>
<path d="M841.17 325.96C850.79 333.73 892.76 338.86 892.76 338.86C892.76 338.86 878.94 298.86 869.32 291.12C864.687 287.526 858.829 285.892 853.004 286.57C847.18 287.247 841.853 290.181 838.168 294.742C834.482 299.303 832.733 305.127 833.294 310.964C833.855 316.801 836.683 322.185 841.17 325.96Z" fill="#AAD5C1"/>
<path d="M941.65 23.36C941.12 35.72 917.21 70.59 917.21 70.59C917.21 70.59 896.37 33.8 896.9 21.44C897.268 15.5878 899.915 10.1129 904.275 6.19122C908.634 2.2695 914.358 0.213589 920.216 0.464945C926.075 0.716302 931.601 3.25488 935.608 7.53559C939.616 11.8163 941.785 17.4978 941.65 23.36Z" fill="#FC6681"/>
<path d="M975.71 93.3899C968.55 103.48 929.52 119.76 929.52 119.76C929.52 119.76 932.02 77.5499 939.18 67.4599C940.853 64.9904 943.003 62.88 945.503 61.2525C948.002 59.625 950.802 58.5131 953.737 57.9822C956.673 57.4513 959.685 57.5119 962.596 58.1607C965.508 58.8095 968.26 60.0332 970.692 61.7601C973.125 63.487 975.187 65.6824 976.76 68.2173C978.332 70.7522 979.382 73.5756 979.849 76.5218C980.315 79.4681 980.189 82.4778 979.476 85.3744C978.764 88.271 977.48 90.9962 975.7 93.3899H975.71Z" fill="#FC6681"/>
<path d="M969.08 210.29C957.81 215.38 915.9 209.74 915.9 209.74C915.9 209.74 939.37 174.57 950.64 169.47C956.032 167.158 962.115 167.053 967.584 169.178C973.052 171.303 977.468 175.488 979.883 180.835C982.299 186.181 982.52 192.262 980.5 197.77C978.48 203.277 974.379 207.773 969.08 210.29Z" fill="#FC6681"/>
<path d="M944.15 297.61C933.9 304.53 891.64 306.05 891.64 306.05C891.64 306.05 908.83 267.42 919.08 260.49C924.004 257.291 929.986 256.154 935.741 257.322C941.495 258.49 946.56 261.871 949.846 266.737C953.133 271.603 954.377 277.564 953.312 283.338C952.246 289.112 948.956 294.237 944.15 297.61Z" fill="#FC6681"/>
<path d="M882.44 120.18C890.93 129.18 931.85 139.86 931.85 139.86C931.85 139.86 923.49 98.41 915 89.42C910.891 85.2309 905.302 82.8216 899.435 82.71C893.568 82.5984 887.892 84.7934 883.626 88.8231C879.361 92.8528 876.847 98.3953 876.625 104.259C876.403 110.123 878.491 115.839 882.44 120.18Z" fill="#FC6681"/>
<path d="M854.58 222.63C865.38 228.63 907.58 226.63 907.58 226.63C907.58 226.63 887.25 189.57 876.44 183.54C871.269 180.809 865.235 180.208 859.627 181.866C854.019 183.524 849.282 187.31 846.428 192.414C843.574 197.518 842.828 203.536 844.352 209.182C845.875 214.828 849.546 219.654 854.58 222.63Z" fill="#FC6681"/>
<path d="M841.17 325.96C850.79 333.73 892.76 338.86 892.76 338.86C892.76 338.86 878.94 298.86 869.32 291.12C864.687 287.526 858.829 285.892 853.004 286.57C847.18 287.247 841.853 290.181 838.168 294.742C834.482 299.303 832.733 305.127 833.294 310.964C833.855 316.801 836.683 322.185 841.17 325.96Z" fill="#FC6681"/>
<path d="M806.77 325.04C806.77 325.04 913.13 235.91 936.77 190.96C960.41 146.01 990.54 107.29 990.54 107.29" stroke="#535461" stroke-width="2" stroke-miterlimit="10"/>
<path d="M976.59 207.75L930.59 197.37C930.59 197.37 941.43 245.91 976.59 207.75Z" fill="#AAD5C1"/>
<path d="M906.25 158.18L932.73 197.84C932.73 197.84 880.99 201.6 906.25 158.18Z" fill="#AAD5C1"/>
<path d="M994.69 170.47L952.63 163.09C952.63 163.09 979.06 203.28 994.69 170.47Z" fill="#AAD5C1"/>
<path d="M932.49 135.04L953.25 162.18C953.25 162.18 916.5 165.64 932.49 135.04Z" fill="#AAD5C1"/>
<path d="M974.39 129.63C974.39 129.63 1010.24 131.34 1014.39 134.76C1018.54 138.18 1009.05 158.24 995.39 154.97C981.73 151.7 974.39 129.63 974.39 129.63Z" fill="#AAD5C1"/>
<path d="M960.07 97.62C960.07 97.62 974.7 124.28 974.15 129.35C973.6 134.42 951.86 140.12 947.46 120.9C943.06 101.68 960.07 97.62 960.07 97.62Z" fill="#AAD5C1"/>
<path d="M1008.04 114.907C1009.71 109.641 1006.79 104.022 1001.53 102.354C996.264 100.687 990.644 103.604 988.977 108.869C987.31 114.134 990.226 119.754 995.492 121.421C1000.76 123.088 1006.38 120.172 1008.04 114.907Z" fill="#FFD037"/>
<path d="M992.395 104.707C994.063 99.4421 991.146 93.8223 985.881 92.1551C980.615 90.4879 974.996 93.4047 973.328 98.6699C971.661 103.935 974.578 109.555 979.843 111.222C985.108 112.889 990.728 109.972 992.395 104.707Z" fill="#FFD037"/>
<path d="M328.86 347.92C328.86 347.92 371.86 315.92 317.86 203.92C317.86 203.92 245.86 114.92 317.86 30.92C317.86 30.92 160.86 34.92 163.86 180.92C166.86 326.92 242.36 347.92 242.36 347.92H328.86Z" fill="#7DA872"/>
<path d="M288.7 347.92C288.7 347.92 277.87 270.92 248.87 223.92C243.142 214.414 239.024 204.028 236.68 193.18C226.99 150.55 240.81 105.97 272.12 75.46L317.87 30.89" stroke="#535461" stroke-width="2" stroke-miterlimit="10"/>
<path d="M418.41 90.87C418.41 90.87 428.29 103.79 413.85 123.29C399.41 142.79 387.51 159.29 392.32 171.41C392.32 171.41 414.1 135.19 431.83 134.68C449.56 134.17 437.91 112.65 418.41 90.87Z" fill="#7DA872"/>
<path opacity="0.1" d="M418.41 90.87C419.265 92.1186 419.938 93.4822 420.41 94.92C437.71 115.24 446.92 134.21 430.3 134.69C414.81 135.13 396.23 162.83 391.78 169.82C391.927 170.359 392.104 170.89 392.31 171.41C392.31 171.41 414.09 135.19 431.82 134.68C449.55 134.17 437.91 112.65 418.41 90.87Z" fill="black"/>
<path d="M436.77 107.33C436.77 111.88 436.26 115.56 435.63 115.56C435 115.56 434.49 111.87 434.49 107.33C434.49 102.79 435.13 104.92 435.76 104.92C436.39 104.92 436.77 102.79 436.77 107.33Z" fill="#FFD037"/>
<path d="M443.07 112.76C439.07 114.94 435.6 116.25 435.3 115.7C435 115.15 437.99 112.94 441.98 110.76C445.97 108.58 444.4 110.17 444.7 110.76C445 111.35 447.06 110.58 443.07 112.76Z" fill="#FFD037"/>
<path d="M366.25 90.87C366.25 90.87 356.37 103.79 370.81 123.29C385.25 142.79 397.15 159.29 392.34 171.41C392.34 171.41 370.56 135.19 352.83 134.68C335.1 134.17 346.73 112.65 366.25 90.87Z" fill="#7DA872"/>
<path opacity="0.1" d="M366.25 90.87C365.395 92.1186 364.722 93.4822 364.25 94.92C346.95 115.24 337.74 134.21 354.36 134.69C369.85 135.13 388.43 162.83 392.88 169.82C392.733 170.359 392.556 170.89 392.35 171.41C392.35 171.41 370.54 135.18 352.81 134.69C335.08 134.2 346.73 112.65 366.25 90.87Z" fill="black"/>
<path d="M347.87 107.33C347.87 111.88 348.38 115.56 349.01 115.56C349.64 115.56 350.15 111.87 350.15 107.33C350.15 102.79 349.51 104.92 348.88 104.92C348.25 104.92 347.87 102.79 347.87 107.33Z" fill="#FFD037"/>
<path d="M341.57 112.76C345.57 114.94 349.04 116.25 349.34 115.7C349.64 115.15 346.65 112.94 342.66 110.76C338.67 108.58 340.24 110.17 339.94 110.76C339.64 111.35 337.58 110.58 341.57 112.76Z" fill="#FFD037"/>
<path d="M1078.5 645.79L990.89 260.31H958.34C957.04 245.58 956.17 231.31 955.84 217.87C955.84 217.87 837.84 243.69 743.74 168.99C649.64 94.29 539.01 175.45 539.01 175.45L538.58 175.14V174.99V175.18C530.9 169.74 424.92 97.11 334.31 169.05C240.25 243.75 122.21 217.93 122.21 217.93C121.88 231.54 121 245.93 119.67 260.8H89.47L0 647.18C0 647.18 363.7 660.8 491.15 648.24C495.72 657.9 515.42 665.16 539.02 665.16C565.54 665.16 587.11 655.99 587.86 644.56C687.07 652.11 900.55 664.18 1078.5 645.79Z" fill="url(#paint0_linear_301_86)"/>
<path d="M98.84 263.7L11.25 642.04C11.25 642.04 493.42 660.1 532.25 634.82C532.25 634.82 831.58 665.07 1067.25 640.69L981.47 263.26L98.84 263.7Z" fill="#E2E2EC"/>
<path opacity="0.1" d="M128.64 276.77L46.98 629.5C46.98 629.5 496.52 646.34 532.72 622.77C532.72 622.77 811.79 650.97 1031.51 628.24L951.51 276.35L128.64 276.77Z" fill="black"/>
<path d="M947.16 221.72C947.16 221.72 831.58 247 739.48 173.86C647.38 100.72 539.02 180.18 539.02 180.18C539.02 180.18 430.67 100.72 338.57 173.86C246.47 247 130.89 221.72 130.89 221.72C127.25 368.9 58.6599 607.28 58.6599 607.28C58.6599 607.28 185.07 641.59 352.12 572.07C519.17 502.55 539.03 596.45 539.03 596.45C539.03 596.45 558.89 502.54 725.94 572.07C892.99 641.6 1019.4 607.28 1019.4 607.28C1019.4 607.28 950.77 368.9 947.16 221.72Z" fill="#F1F2FB"/>
<path opacity="0.1" d="M316 599.18C316 599.18 468.6 564.87 539 615.43C539 615.43 606.72 554.03 763.83 601.89" fill="black"/>
<path d="M539.02 659.65C565.452 659.65 586.88 650.351 586.88 638.88C586.88 627.409 565.452 618.11 539.02 618.11C512.588 618.11 491.16 627.409 491.16 638.88C491.16 650.351 512.588 659.65 539.02 659.65Z" fill="#E8EAF8"/>
<path opacity="0.1" d="M538.57 179.73C538.57 179.73 572.88 354 539.47 599.6Z" fill="black"/>
<path opacity="0.1" d="M163.95 276.35C163.95 276.35 235.82 293.05 298.03 276.35C360.24 259.65 474.46 205.02 512.03 276.35" stroke="black" stroke-width="4" stroke-miterlimit="10"/>
<path opacity="0.1" d="M163.95 307.05C163.95 307.05 235.82 323.75 298.03 307.05C360.24 290.35 494.94 291.25 512.03 307.05" stroke="black" stroke-width="4" stroke-miterlimit="10"/>
<path opacity="0.1" d="M163.95 361.18C163.95 361.18 235.82 377.88 298.03 361.18C360.24 344.48 474.46 289.85 512.03 361.18" stroke="black" stroke-width="4" stroke-miterlimit="10"/>
<path opacity="0.1" d="M163.95 391.92C163.95 391.92 235.82 408.62 298.03 391.92C360.24 375.22 494.94 376.12 512.03 391.92" stroke="black" stroke-width="4" stroke-miterlimit="10"/>
<path opacity="0.1" d="M914.1 276.35C914.1 276.35 842.23 293.05 780.02 276.35C717.81 259.65 603.59 205.02 566.02 276.35" stroke="black" stroke-width="4" stroke-miterlimit="10"/>
<path opacity="0.1" d="M914.1 307.05C914.1 307.05 842.23 323.75 780.02 307.05C717.81 290.35 583.11 291.25 566.02 307.05" stroke="black" stroke-width="4" stroke-miterlimit="10"/>
<path opacity="0.1" d="M914.1 361.18C914.1 361.18 842.23 377.88 780.02 361.18C717.81 344.48 603.59 289.85 566.02 361.18" stroke="black" stroke-width="4" stroke-miterlimit="10"/>
<path opacity="0.1" d="M914.1 391.92C914.1 391.92 842.23 408.62 780.02 391.92C717.81 375.22 583.11 376.12 566.02 391.92" stroke="black" stroke-width="4" stroke-miterlimit="10"/>
<path d="M915.56 716.97C918.56 714.68 921.41 711.97 922.28 708.7C922.726 706.963 922.488 705.121 921.615 703.554C920.742 701.988 919.302 700.816 917.59 700.28C913.28 698.94 908.68 701.37 905.18 703.83C901.68 706.29 897.69 709.1 893.12 708.58C897.85 705.16 900.12 699.58 898.8 694.58C898.578 693.491 898.026 692.496 897.22 691.73C894.83 689.64 890.49 690.54 887.63 692.18C878.52 697.41 875.98 707.5 875.93 716.59C875.01 713.31 875.79 709.9 875.76 706.53C875.73 703.16 874.61 699.44 871.13 697.63C868.904 696.668 866.494 696.207 864.07 696.28C859.98 696.16 855.41 696.49 852.62 698.94C849.15 701.94 850.05 707.07 853.07 710.41C856.09 713.75 860.69 715.85 864.92 718.16C868.15 719.92 871.41 721.97 873.39 724.75C873.643 725.119 873.855 725.514 874.02 725.93H899.69C905.33 723.61 910.661 720.601 915.56 716.97Z" fill="#7DA872"/>
<path d="M738.07 356.87C738.07 356.87 738.32 358.31 738.74 360.87C738.52 361.27 738.3 361.67 738.07 362.06C729.87 375.86 728.61 395.74 729.38 412.06C730.098 425.223 732.405 438.251 736.25 450.86C740.94 467.248 743.297 484.215 743.25 501.26C746.495 504.769 750.395 507.609 754.73 509.62C754.95 510.29 755.18 510.97 755.38 511.62C759.159 524.215 761.714 537.145 763.01 550.23L765.59 582.89C765.59 582.89 785.36 656.81 791.37 670.56C795.65 680.34 794.71 700.56 793.81 711.4C791.24 718.69 788.11 725.64 785.35 726.4C780.35 727.82 775.35 739.86 782.63 745.91C783.175 746.363 783.761 746.764 784.38 747.11L784.67 747.27L785.2 747.54L785.98 747.89L786.38 748.04L787.21 748.32L787.57 748.43C787.96 748.54 788.36 748.65 788.79 748.75C793.859 749.747 799.117 748.915 803.63 746.4C809.11 745.58 813.98 742.64 817.63 739.67L817.53 744.88H823.53L823.25 734.47C824.33 733.26 824.93 732.47 824.93 732.47C824.93 732.47 825.11 726.18 825.8 718.86L825.36 742.35H831.36L829.74 699C830.043 698.352 830.444 697.755 830.93 697.23C835.93 692.23 827.29 676.1 822.82 673.41C824.82 662.81 832.45 647.5 841.25 618.15C854.14 575.15 837.81 533.06 837.81 533.06V500.06C842.14 498.2 844.69 496.93 844.69 496.93C844.69 496.93 838.69 461.69 844.69 436.77C848.58 420.66 849.59 406.35 846.34 392.66C850.66 377.78 854.15 366.29 854.15 366.29L860.15 304.41C861.68 295.12 862.71 287.17 863.37 280.41C863.48 279.57 863.56 278.72 863.6 277.88C864.7 265.29 864.46 256.88 863.74 251.38C864.09 248.859 864.21 246.312 864.1 243.77C864.239 242.465 864.293 241.152 864.26 239.84C865.12 238.84 865.96 237.84 866.76 236.84C868.889 234.196 870.698 231.309 872.15 228.24C878.76 215.77 878.95 200.54 869.72 189.55C864.04 182.78 862.27 175.49 857.36 168.28C852.87 161.68 852.02 153.77 850.94 146.17C849.603 136.723 847.767 127.353 845.44 118.1C844.75 115.38 840.97 113.71 839.09 111.45C835.46 107.08 824.86 107.23 818.75 106.26C808.49 104.63 797.38 103.11 788.04 107.14C781.54 109.95 776.87 115.06 771.79 119.57C766.32 124.42 755.12 126.76 753.38 132.57C751.83 134.79 751.75 137.57 754.38 141.29C756.92 144.87 760.92 147.43 764.65 150.11C765.13 150.45 765.58 150.81 766.05 151.11C764.786 158.827 766.032 166.746 769.605 173.702C773.179 180.658 778.89 186.283 785.9 189.75C785.8 190.4 785.69 191.04 785.57 191.67C784.473 197.277 782.962 202.796 781.05 208.18C779.94 211.5 767.1 217.3 758.05 221.02C757.003 219.945 755.757 219.086 754.38 218.49C747.5 216.77 724.3 229.66 722.58 233.96C722.1 235.16 723.36 238.48 725.41 242.66C725.546 244.565 725.857 246.453 726.34 248.3C725.83 257.1 726.75 271.3 731.18 294.13L738.07 356.87ZM834.57 366.54C834.25 365.93 833.92 365.31 833.57 364.67C824.02 345.36 818.35 314.14 832.03 295.52C833.25 295.65 834.47 295.77 835.69 295.85C836.5 321.19 836.03 362.85 836.03 362.85C836.03 362.85 835.49 364.25 834.57 366.54ZM800.48 513.72C802.42 523.47 804.7 534.8 806.83 545.1C809.363 557.093 809.192 569.501 806.33 581.42L798.25 557.18L796.37 514.53L796.25 512.78C797.55 512.56 798.84 512.323 800.12 512.07L800.48 513.72Z" fill="url(#paint1_linear_301_86)"/>
<path d="M806.72 543.24C809.214 555.045 809.047 567.258 806.23 578.99C805.726 581.22 805.058 583.409 804.23 585.54L806.51 678.24L806.77 688.75C808.882 689.194 811.019 689.508 813.17 689.69C815.165 689.897 817.175 689.897 819.17 689.69C821.17 689.44 822.93 688.84 823.87 687.69C824.81 686.54 825.01 684.69 823.68 682C822.217 679.044 821.651 675.724 822.05 672.45C822.13 671.53 822.28 670.56 822.46 669.56C824.46 659.13 831.93 644.05 840.6 615.17C853.29 572.87 837.22 531.42 837.22 531.42V492.48L795.77 488.25C795.77 488.25 797.77 498.73 800.52 512.35C802.38 521.95 804.62 533.1 806.72 543.24Z" fill="#FDC2CC"/>
<path opacity="0.1" d="M806.72 543.24C809.214 555.045 809.047 567.258 806.23 578.99C805.726 581.22 805.058 583.409 804.23 585.54L806.51 678.24L806.77 688.75C808.882 689.194 811.019 689.508 813.17 689.69C815.165 689.897 817.175 689.897 819.17 689.69C821.17 689.44 822.93 688.84 823.87 687.69C824.81 686.54 825.01 684.69 823.68 682C822.217 679.044 821.651 675.724 822.05 672.45C822.13 671.53 822.28 670.56 822.46 669.56C824.46 659.13 831.93 644.05 840.6 615.17C853.29 572.87 837.22 531.42 837.22 531.42V492.48L795.77 488.25C795.77 488.25 797.77 498.73 800.52 512.35C802.38 521.95 804.62 533.1 806.72 543.24Z" fill="black"/>
<path d="M749.19 492.48C751.924 498.242 754.221 504.203 756.06 510.31C759.78 522.706 762.295 535.431 763.57 548.31L766.11 580.46C766.11 580.46 785.57 653.21 791.49 666.75C795.7 676.38 794.78 696.28 793.89 706.97C793.53 711.31 793.18 714.13 793.18 714.13L801.81 703.56L813.12 689.69L818.28 683.36L819.41 681.98C818.045 679.143 816.94 676.187 816.11 673.15C813.493 663.886 811.769 654.393 810.96 644.8C808.42 618.58 807.58 583.04 807.58 583.04L806.24 579.04L798.24 555.13L796.39 513.13L795.7 497.58L749.19 492.48Z" fill="#FDC2CC"/>
<path d="M814.63 674.97C810.068 680.916 806.656 687.662 804.57 694.86C801.88 704.01 797.15 718.07 793.18 719.2C787.26 720.89 781.34 737.81 796.56 741.2C811.78 744.59 824.48 727.66 824.48 727.66C824.48 727.66 825.33 698.05 830.4 692.98C835.47 687.91 826.17 670.98 821.94 669.29C820.25 668.6 817.39 671.4 814.63 674.97Z" fill="#5F5D7E"/>
<path opacity="0.1" d="M791.49 738.66C795.469 739.493 799.606 739.117 803.37 737.58C808.005 735.725 812.022 732.601 814.962 728.566C817.902 724.532 819.644 719.75 819.99 714.77C820.71 705.71 822.23 693.53 825.32 690.44C829.32 686.44 824.32 675.04 820.02 669.59C820.297 669.404 820.612 669.28 820.942 669.228C821.272 669.177 821.609 669.198 821.93 669.29C826.16 670.98 835.47 687.9 830.39 692.98C825.31 698.06 824.47 727.66 824.47 727.66C824.47 727.66 811.8 744.58 796.57 741.18C794.355 740.752 792.276 739.795 790.51 738.39C790.83 738.49 791.15 738.58 791.49 738.66Z" fill="black"/>
<path d="M829.2 693.69L830.83 737.39H824.91L825.73 693.72C825.753 693.28 825.949 692.866 826.274 692.569C826.6 692.271 827.029 692.114 827.47 692.13C827.904 692.116 828.327 692.271 828.649 692.562C828.972 692.852 829.169 693.257 829.2 693.69Z" fill="#5F5D7E"/>
<path opacity="0.15" d="M829.2 693.69L830.83 737.39H824.91L825.73 693.72C825.753 693.28 825.949 692.866 826.274 692.569C826.6 692.271 827.029 692.114 827.47 692.13C827.904 692.116 828.327 692.271 828.649 692.562C828.972 692.852 829.169 693.257 829.2 693.69Z" fill="black"/>
<path d="M807.02 677.51C802.458 683.456 799.046 690.202 796.96 697.4C794.27 706.55 789.54 720.61 785.57 721.74C779.65 723.43 773.73 740.35 788.95 743.74C804.17 747.13 816.87 730.18 816.87 730.18C816.87 730.18 817.72 700.57 822.79 695.5C827.86 690.43 818.56 673.5 814.33 671.81C812.62 671.18 809.78 673.94 807.02 677.51Z" fill="#5F5D7E"/>
<path opacity="0.1" d="M783.88 741.18C787.859 742.013 791.997 741.637 795.76 740.1C800.395 738.245 804.412 735.121 807.352 731.086C810.292 727.052 812.034 722.27 812.38 717.29C813.1 708.23 814.62 696.05 817.71 692.96C821.71 688.96 816.71 677.56 812.41 672.11C812.687 671.924 813.002 671.8 813.332 671.748C813.662 671.697 813.999 671.718 814.32 671.81C818.55 673.5 827.86 690.42 822.78 695.5C817.7 700.58 816.87 730.18 816.87 730.18C816.87 730.18 804.18 747.1 788.95 743.72C786.735 743.292 784.656 742.335 782.89 740.93C783.25 741.03 783.54 741.12 783.88 741.18Z" fill="black"/>
<path d="M821.58 696.18L823.21 739.88H817.25L818.07 696.21C818.093 695.77 818.289 695.356 818.614 695.059C818.94 694.761 819.369 694.604 819.81 694.62C820.251 694.595 820.684 694.745 821.015 695.037C821.346 695.329 821.549 695.74 821.58 696.18Z" fill="#5F5D7E"/>
<path opacity="0.15" d="M821.58 696.18L823.21 739.88H817.25L818.07 696.21C818.093 695.77 818.289 695.356 818.614 695.059C818.94 694.761 819.369 694.604 819.81 694.62C820.251 694.595 820.684 694.745 821.015 695.037C821.346 695.329 821.549 695.74 821.58 696.18Z" fill="black"/>
<path d="M750.04 227.7L783.88 281L823.64 286.08C823.64 286.08 848.17 237.86 847.33 235.32C846.49 232.78 833.79 227.71 821.95 218.4C810.11 209.09 824.49 170.18 824.49 170.18L785.58 173.56C785.73 174.08 785.88 174.56 785.99 175.14C787.54 181.71 786.99 189 785.8 195.41C784.715 200.919 783.224 206.34 781.34 211.63C779.65 216.7 750.04 227.7 750.04 227.7Z" fill="#FDC2CC"/>
<path opacity="0.1" d="M795.72 488.25C795.72 488.25 797.72 498.73 800.47 512.35C813.065 509.67 825.362 505.745 837.18 500.63V492.48L795.72 488.25Z" fill="black"/>
<path opacity="0.1" d="M749.19 492.48C751.924 498.242 754.221 504.203 756.06 510.31C767.83 515.62 782.47 515.47 796.4 513.1L795.71 497.55L749.19 492.48Z" fill="black"/>
<path d="M739.04 363.05C730.97 376.64 729.73 396.19 730.49 412.31C731.197 425.262 733.467 438.082 737.25 450.49C741.87 466.62 744.193 483.321 744.15 500.1C772.91 531.4 843.97 495.87 843.97 495.87C843.97 495.87 838.05 461.19 843.97 436.65C848.09 419.59 848.97 404.56 844.79 390.16C842.866 383.58 840.028 377.302 836.36 371.51C835.24 369.73 834.15 367.76 833.1 365.65C823.3 345.83 817.64 313.27 833.4 295.31C835.038 293.441 836.883 291.763 838.9 290.31C852.64 280.36 858.9 269.31 861.54 259.96C863.191 254.151 863.533 248.047 862.54 242.09C860.85 232.78 837.16 224.32 837.16 224.32C838.01 252.24 802.48 275.92 802.48 275.92C802.48 275.92 761.87 223.47 755.11 221.78C748.35 220.09 725.5 232.78 723.81 237.01C722.12 241.24 742.42 272.54 742.42 272.54C742.42 272.54 755.12 335.98 739.04 363.05Z" fill="#D39999"/>
<path opacity="0.1" d="M838.87 290.3C852.61 280.35 858.87 269.3 861.51 259.95C860.85 245.95 857.51 243.78 857.51 243.78C857.51 243.78 829.56 270.84 832.1 280.18C832.68 282.33 833.1 287.95 833.37 295.34C835.006 293.457 836.851 291.766 838.87 290.3Z" fill="black"/>
<path opacity="0.1" d="M791.49 483.18C797.41 500.95 827.02 469.64 827.87 456.11C828.41 447.45 837.96 413.5 844.76 390.17C842.836 383.589 839.999 377.312 836.33 371.52C835.21 369.74 834.12 367.77 833.07 365.66C829.86 373.55 816.97 405.89 817.72 415.51C818.57 426.51 812.64 442.58 812.64 442.58C812.64 442.58 785.57 465.41 791.49 483.18Z" fill="black"/>
<path d="M859.17 243.77C859.17 243.77 868.48 249.69 859.17 306.37L853.25 367.28C853.25 367.28 830.41 442.57 829.56 456.11C828.71 469.65 799.11 500.94 793.18 483.18C787.25 465.42 814.33 442.57 814.33 442.57C814.33 442.57 820.25 426.5 819.41 415.5C818.57 404.5 835.48 363.9 835.48 363.9C835.48 363.9 836.33 289.46 833.79 280.15C831.25 270.84 859.17 243.77 859.17 243.77Z" fill="#FDC2CC"/>
<path opacity="0.1" d="M733.97 237C733.97 237 722.97 239.54 733.97 296.22L740.74 357.98C740.74 357.98 755.97 446.81 755.12 456.98C754.27 467.15 788.12 493.36 790.65 478.98C793.18 464.6 773.73 440.91 773.73 440.91C773.73 440.91 765.25 422.27 765.25 387.58L763.56 359.66L751.73 259L733.97 237Z" fill="black"/>
<path d="M732.25 237C732.25 237 721.25 239.54 732.25 296.22L739.02 357.98C739.02 357.98 754.25 446.81 753.4 456.98C752.55 467.15 786.4 493.36 788.93 478.98C791.46 464.6 772.01 440.91 772.01 440.91C772.01 440.91 763.55 422.3 763.55 387.61L761.86 359.69L750.04 259L732.25 237Z" fill="#FDC2CC"/>
<path opacity="0.1" d="M726.78 239.96C726.78 239.96 721.7 267.03 757.23 276.34C792.76 285.65 753 244.18 753 244.18C753 244.18 739.47 223.89 726.78 239.96Z" fill="black"/>
<path d="M727.62 239.12C727.62 239.12 722.55 266.18 758.08 275.49C793.61 284.8 753.85 243.34 753.85 243.34C753.85 243.34 740.31 223.04 727.62 239.12Z" fill="#D39999"/>
<path opacity="0.1" d="M862.98 239.96C862.98 239.96 868.06 267.03 832.53 276.34C797 285.65 836.75 244.18 836.75 244.18C836.75 244.18 850.25 223.89 862.98 239.96Z" fill="black"/>
<path d="M862.13 239.12C862.13 239.12 867.25 266.18 831.68 275.49C796.11 284.8 835.91 243.34 835.91 243.34C835.91 243.34 849.44 223.04 862.13 239.12Z" fill="#D39999"/>
<path opacity="0.1" d="M785.8 195.4C790.47 196.76 795.7 185.82 801.22 185.82C807.07 185.82 812.58 197.53 817.46 195.05C818.883 187.164 820.95 179.408 823.64 171.86L785.99 175.18C787.53 181.71 786.99 188.99 785.8 195.4Z" fill="black"/>
<path d="M802.07 197.24C821.925 197.24 838.02 181.145 838.02 161.29C838.02 141.435 821.925 125.34 802.07 125.34C782.215 125.34 766.12 141.435 766.12 161.29C766.12 181.145 782.215 197.24 802.07 197.24Z" fill="#FDC2CC"/>
<path opacity="0.1" d="M755.09 145.77C757.59 149.29 761.53 151.77 765.2 154.45C769.737 157.7 774.022 161.286 778.02 165.18C780.845 167.761 783.262 170.755 785.19 174.06C788.04 179.38 788.42 185.4 788.76 191.26L792.25 251.79C792.48 255.79 792.71 259.88 791.69 263.79C790.656 267.121 789.201 270.307 787.36 273.27C782.75 281.45 778.01 289.79 770.59 296.27C768.11 298.42 765.09 301.2 766.4 304.02C767.46 306.29 770.72 307.02 773.52 307.35C785.27 308.93 798.29 310.28 808.18 304.55C811.91 302.39 815 299.29 819.18 297.95C825 296.1 831.42 298.03 837.62 298.02C844.2 298.02 850.48 295.83 856.62 293.67C857.798 293.372 858.876 292.765 859.74 291.91C860.23 291.199 860.536 290.378 860.63 289.52C861.56 284.61 862.44 279.52 860.92 274.71C859.27 269.5 854.92 264.99 854.43 259.61C853.79 252.13 860.69 246.04 865.65 239.89C876.21 226.8 878.56 207.95 867.72 195.04C862.13 188.38 860.38 181.2 855.55 174.11C851.13 167.62 850.29 159.83 849.23 152.35C847.911 143.051 846.102 133.828 843.81 124.72C843.14 122.04 839.41 120.4 837.56 118.17C833.98 113.87 823.56 114.02 817.56 113.06C807.46 111.46 796.56 109.96 787.33 113.93C780.93 116.69 776.33 121.73 771.33 126.16C764.25 132.48 747.07 134.46 755.09 145.77Z" fill="black"/>
<path d="M755.94 144.08C758.44 147.6 762.38 150.08 766.05 152.76C770.587 156.016 774.873 159.61 778.87 163.51C781.695 166.091 784.112 169.085 786.04 172.39C788.89 177.71 789.27 183.73 789.61 189.59L793.13 250.1C793.36 254.1 793.59 258.19 792.57 262.1C791.536 265.431 790.081 268.617 788.24 271.58C783.63 279.76 778.89 288.1 771.47 294.58C768.99 296.73 765.97 299.51 767.28 302.33C768.34 304.6 771.6 305.33 774.4 305.66C786.15 307.24 799.17 308.59 809.06 302.86C812.79 300.7 815.88 297.6 820.06 296.26C825.88 294.41 832.3 296.34 838.5 296.33C845.08 296.33 851.36 294.14 857.5 291.98C858.678 291.682 859.756 291.075 860.62 290.22C861.11 289.509 861.416 288.688 861.51 287.83C862.44 282.92 863.32 277.83 861.8 273.02C860.15 267.81 855.8 263.3 855.31 257.92C854.67 250.44 861.57 244.35 866.53 238.2C877.09 225.11 879.44 206.26 868.6 193.35C863.01 186.69 861.26 179.51 856.43 172.42C852.01 165.93 851.17 158.14 850.11 150.66C848.791 141.361 846.982 132.138 844.69 123.03C844.02 120.35 840.29 118.71 838.44 116.48C834.86 112.18 824.44 112.33 818.44 111.37C808.34 109.77 797.44 108.27 788.21 112.24C781.81 115 777.21 120.04 772.21 124.47C765.05 130.79 747.92 132.77 755.94 144.08Z" fill="#865A61"/>
</g>
<defs>
<linearGradient id="paint0_linear_301_86" x1="539.25" y1="665.15" x2="539.25" y2="137.41" gradientUnits="userSpaceOnUse">
<stop stop-color="#808080" stop-opacity="0.25"/>
<stop offset="0.54" stop-color="#808080" stop-opacity="0.12"/>
<stop offset="1" stop-color="#808080" stop-opacity="0.1"/>
</linearGradient>
<linearGradient id="paint1_linear_301_86" x1="799.69" y1="749.25" x2="799.69" y2="104.61" gradientUnits="userSpaceOnUse">
<stop stop-color="#808080" stop-opacity="0.25"/>
<stop offset="0.54" stop-color="#808080" stop-opacity="0.12"/>
<stop offset="1" stop-color="#808080" stop-opacity="0.1"/>
</linearGradient>
<clipPath id="clip0_301_86">
<rect width="1078.5" height="780.36" fill="white"/>
</clipPath>
</defs>
</svg>
